/* XPM */
static char * hakuneko_xpm[] = {
"32 32 899 2",
"  	c None",
". 	c #6176A4",
"+ 	c #4E5C76",
"@ 	c #CFDBE5",
"# 	c #9B9EAD",
"$ 	c #5C7185",
"% 	c #495E68",
"& 	c #3A4C5A",
"* 	c #55607C",
"= 	c #838CA0",
"- 	c #8BA1B1",
"; 	c #B4C6DA",
"> 	c #D7DEE2",
", 	c #F4F0F0",
"' 	c #E5F1EF",
") 	c #BABBB6",
"! 	c #98716B",
"~ 	c #87696E",
"{ 	c #AC9BA9",
"] 	c #C8B5AE",
"^ 	c #A39F9F",
"/ 	c #E3E0E1",
"( 	c #FFFEFF",
"_ 	c #FDFDFD",
": 	c #FEFEFE",
"< 	c #FFFFFF",
"[ 	c #FFFEFE",
"} 	c #FDFCFD",
"| 	c #F0F2F1",
"1 	c #5C7493",
"2 	c #475477",
"3 	c #BDCAD3",
"4 	c #959BA4",
"5 	c #667B91",
"6 	c #485D72",
"7 	c #708498",
"8 	c #6E7E9E",
"9 	c #8B98B1",
"0 	c #DBEAEE",
"a 	c #CDDDDB",
"b 	c #D5E1DD",
"c 	c #ABA9A3",
"d 	c #7A5657",
"e 	c #865B5A",
"f 	c #947B77",
"g 	c #BC9693",
"h 	c #AC837D",
"i 	c #EBE2E1",
"j 	c #F2EAED",
"k 	c #A1989C",
"l 	c #E3DCDF",
"m 	c #FEFDFE",
"n 	c #FDFCFC",
"o 	c #FAFAFB",
"p 	c #A4A7A5",
"q 	c #506385",
"r 	c #607395",
"s 	c #A4B5C5",
"t 	c #99ABC0",
"u 	c #91A4BE",
"v 	c #8594AF",
"w 	c #73839E",
"x 	c #94A1C6",
"y 	c #B8C6D9",
"z 	c #C2CCCD",
"A 	c #88918A",
"B 	c #66564F",
"C 	c #795145",
"D 	c #AD847F",
"E 	c #B1928D",
"F 	c #A58476",
"G 	c #A66F63",
"H 	c #EAC5BE",
"I 	c #F7F7FA",
"J 	c #FAEDF5",
"K 	c #F1E7EE",
"L 	c #AEA9AD",
"M 	c #E9EAE8",
"N 	c #FCFCFA",
"O 	c #FFFBFE",
"P 	c #FEFDFD",
"Q 	c #C9CACD",
"R 	c #CCD4D1",
"S 	c #4A5872",
"T 	c #889CB4",
"U 	c #94A5BD",
"V 	c #4E6A92",
"W 	c #4F688A",
"X 	c #778DA7",
"Y 	c #98AEBB",
"Z 	c #A3ACB2",
"` 	c #72736A",
" .	c #6E6D62",
"..	c #A37474",
"+.	c #CE8C89",
"@.	c #F1CEC8",
"#.	c #959388",
"$.	c #8B7567",
"%.	c #B4756D",
"&.	c #E4CCC0",
"*.	c #F2FAF1",
"=.	c #FAF4F9",
"-.	c #FDF1F9",
";.	c #FBF4FB",
">.	c #DBDADC",
",.	c #BFBEBA",
"'.	c #F6F9F1",
").	c #F5FDF2",
"!.	c #FCFEFA",
"~.	c #F9FEFD",
"{.	c #E7E7E5",
"].	c #A39D97",
"^.	c #E0E3D8",
"/.	c #65707B",
"(.	c #77879A",
"_.	c #686E83",
":.	c #888DAA",
"<.	c #999AA8",
"[.	c #7C787A",
"}.	c #5C4847",
"|.	c #705349",
"1.	c #A98381",
"2.	c #E9CBCA",
"3.	c #FDECE4",
"4.	c #E8ECDD",
"5.	c #767D73",
"6.	c #B17279",
"7.	c #DF9CA1",
"8.	c #EFE1DE",
"9.	c #F7F3F0",
"0.	c #F5F7F8",
"a.	c #FBF7FD",
"b.	c #FDF8FE",
"c.	c #FAF9FD",
"d.	c #E4EAEE",
"e.	c #8D9BA2",
"f.	c #ACB5B6",
"g.	c #F3F6EE",
"h.	c #FCFCF9",
"i.	c #FBFCFC",
"j.	c #EBE4D8",
"k.	c #B7978C",
"l.	c #CBB6B2",
"m.	c #A8A49A",
"n.	c #959CA1",
"o.	c #515965",
"p.	c #89858E",
"q.	c #827173",
"r.	c #A7948E",
"s.	c #A59185",
"t.	c #C6B8AC",
"u.	c #F7EDDF",
"v.	c #FBF0EF",
"w.	c #E4D4D9",
"x.	c #D6CFCE",
"y.	c #AC9698",
"z.	c #D2AAB1",
"A.	c #E7D9D1",
"B.	c #ECEFE7",
"C.	c #D8DCD9",
"D.	c #C7C0BD",
"E.	c #D5C4C6",
"F.	c #DDD8D7",
"G.	c #FAF8FA",
"H.	c #E5EAEE",
"I.	c #A2B1BB",
"J.	c #A2BFD0",
"K.	c #7E95A9",
"L.	c #9BA1AE",
"M.	c #D9D9DB",
"N.	c #E2E3E6",
"O.	c #C9BAB6",
"P.	c #875B4A",
"Q.	c #B58D80",
"R.	c #CABCBD",
"S.	c #C3B4B9",
"T.	c #7B8999",
"U.	c #8B898B",
"V.	c #CABEB8",
"W.	c #E5D8D1",
"X.	c #C3B6AF",
"Y.	c #D4C8C1",
"Z.	c #BFB8B3",
"`.	c #B1ABA6",
" +	c #B2ABA6",
".+	c #AB9991",
"++	c #C6B5AE",
"@+	c #F9F4EF",
"#+	c #FCFCF8",
"$+	c #FEF6F1",
"%+	c #F3E4DD",
"&+	c #D0BDB7",
"*+	c #C8B0AB",
"=+	c #A59692",
"-+	c #7B7D87",
";+	c #93A5BB",
">+	c #A1C0D4",
",+	c #90B8D0",
"'+	c #A4C2CD",
")+	c #C3D3CF",
"!+	c #9F8879",
"~+	c #B5857C",
"{+	c #B6A49F",
"]+	c #A38983",
"^+	c #D6C7C9",
"/+	c #626F7F",
"(+	c #C5C4C7",
"_+	c #908683",
":+	c #524947",
"<+	c #6E6562",
"[+	c #98918E",
"}+	c #D2D0CF",
"|+	c #232121",
"1+	c #161514",
"2+	c #251C19",
"3+	c #2A2521",
"4+	c #5E6360",
"5+	c #949B9B",
"6+	c #646568",
"7+	c #71666D",
"8+	c #877D80",
"9+	c #B1A8A6",
"0+	c #F2E3E2",
"a+	c #C8B9B8",
"b+	c #868483",
"c+	c #798288",
"d+	c #4C5D6B",
"e+	c #718590",
"f+	c #DCECF3",
"g+	c #E8DDD7",
"h+	c #B89089",
"i+	c #D5AFA1",
"j+	c #CCC9BF",
"k+	c #B8C6C0",
"l+	c #986B60",
"m+	c #B38379",
"n+	c #F3F2F0",
"o+	c #5B6067",
"p+	c #B9B8BF",
"q+	c #B4B2B6",
"r+	c #1D1819",
"s+	c #040000",
"t+	c #070403",
"u+	c #020203",
"v+	c #070709",
"w+	c #07080D",
"x+	c #141523",
"y+	c #434451",
"z+	c #363639",
"A+	c #010002",
"B+	c #040106",
"C+	c #010004",
"D+	c #050509",
"E+	c #040707",
"F+	c #222428",
"G+	c #545D63",
"H+	c #789095",
"I+	c #8D9C9D",
"J+	c #BAC2BE",
"K+	c #E6E6DA",
"L+	c #B1908A",
"M+	c #A16456",
"N+	c #E7BFAA",
"O+	c #DAD9DB",
"P+	c #BBB2BA",
"Q+	c #B37D77",
"R+	c #974E3F",
"S+	c #D7B2AD",
"T+	c #F3F4F6",
"U+	c #94A0A2",
"V+	c #554D51",
"W+	c #1C1A1A",
"X+	c #070808",
"Y+	c #030304",
"Z+	c #000000",
"`+	c #111014",
" @	c #2D2B34",
".@	c #504D5C",
"+@	c #5A5965",
"@@	c #0D0C12",
"#@	c #010103",
"$@	c #000004",
"%@	c #000002",
"&@	c #0C0C11",
"*@	c #5E6067",
"=@	c #CBD4DE",
"-@	c #C0CED9",
";@	c #A5B1B5",
">@	c #B1B3B5",
",@	c #A39897",
"'@	c #B2857B",
")@	c #DA8982",
"!@	c #B87264",
"~@	c #947167",
"{@	c #AAA09A",
"]@	c #B09789",
"^@	c #A2604C",
"/@	c #D18B82",
"(@	c #F7DFE0",
"_@	c #F5EAEB",
":@	c #D7E1E3",
"<@	c #8D7770",
"[@	c #3B3430",
"}@	c #020402",
"|@	c #17161D",
"1@	c #403E4C",
"2@	c #656273",
"3@	c #8B8897",
"4@	c #8C8B97",
"5@	c #0D0C11",
"6@	c #000003",
"7@	c #03020C",
"8@	c #191822",
"9@	c #62606A",
"0@	c #AFB0B9",
"a@	c #C6C9D0",
"b@	c #A7A8AC",
"c@	c #6F6F73",
"d@	c #414149",
"e@	c #141115",
"f@	c #32201F",
"g@	c #6A473F",
"h@	c #A37D6A",
"i@	c #C0AA9D",
"j@	c #9E7669",
"k@	c #7D4534",
"l@	c #B67F75",
"m@	c #EDC8C4",
"n@	c #DECAC7",
"o@	c #D8A89C",
"p@	c #D2CDD5",
"q@	c #A57970",
"r@	c #684B48",
"s@	c #0A0A08",
"t@	c #4A4854",
"u@	c #7D778D",
"v@	c #9E9BA6",
"w@	c #ECECED",
"x@	c #7B7C7A",
"y@	c #2F3033",
"z@	c #464455",
"A@	c #6D6A80",
"B@	c #827F8E",
"C@	c #817F8C",
"D@	c #767382",
"E@	c #383944",
"F@	c #14161D",
"G@	c #120E10",
"H@	c #0B0406",
"I@	c #0B030D",
"J@	c #070207",
"K@	c #050304",
"L@	c #5A595B",
"M@	c #B6ACB0",
"N@	c #65463E",
"O@	c #AF5F4D",
"P@	c #C4746A",
"Q@	c #AB8282",
"R@	c #CAB4B2",
"S@	c #EEDDD9",
"T@	c #965546",
"U@	c #D8D5DA",
"V@	c #EACECA",
"W@	c #A36363",
"X@	c #241314",
"Y@	c #2D2B32",
"Z@	c #9B96A4",
"`@	c #DEDDDD",
" #	c #E5E6DE",
".#	c #06050B",
"+#	c #1B1A34",
"@#	c #241F5C",
"##	c #191350",
"$#	c #120E31",
"%#	c #140E31",
"&#	c #0C091E",
"*#	c #060508",
"=#	c #06050A",
"-#	c #020207",
";#	c #020106",
">#	c #020206",
",#	c #08080C",
"'#	c #17171B",
")#	c #828283",
"!#	c #808080",
"~#	c #040504",
"{#	c #030503",
"]#	c #49271E",
"^#	c #BD8D80",
"/#	c #E4BAB1",
"(#	c #AB6860",
"_#	c #C2A7A1",
":#	c #9E8084",
"<#	c #E9E5E5",
"[#	c #BFAEA9",
"}#	c #E6B8B7",
"|#	c #684345",
"1#	c #100E0F",
"2#	c #959CA3",
"3#	c #E6E7E6",
"4#	c #CBCCC5",
"5#	c #6A696E",
"6#	c #6B6A7F",
"7#	c #716E9B",
"8#	c #5D5692",
"9#	c #392F76",
"0#	c #211751",
"a#	c #0E0A1F",
"b#	c #07060A",
"c#	c #050409",
"d#	c #08070C",
"e#	c #444347",
"f#	c #818085",
"g#	c #BEBDC1",
"h#	c #C7C7C7",
"i#	c #606060",
"j#	c #030203",
"k#	c #120E16",
"l#	c #263333",
"m#	c #655755",
"n#	c #A46A65",
"o#	c #DA857C",
"p#	c #DCBAAC",
"q#	c #756E6C",
"r#	c #ECE7E5",
"s#	c #8E807B",
"t#	c #F7E0DC",
"u#	c #D7B4B2",
"v#	c #342829",
"w#	c #6C6B6F",
"x#	c #E1E2E0",
"y#	c #FFFFFA",
"z#	c #D4D3DB",
"A#	c #9B99B8",
"B#	c #7571A0",
"C#	c #625AA4",
"D#	c #423884",
"E#	c #161038",
"F#	c #0A0816",
"G#	c #1E1C26",
"H#	c #131317",
"I#	c #0F0E15",
"J#	c #8D8C92",
"K#	c #EAEAED",
"L#	c #F5F4F7",
"M#	c #FCFCFC",
"N#	c #4E4E4F",
"O#	c #323537",
"P#	c #29272F",
"Q#	c #140B0B",
"R#	c #81665B",
"S#	c #AE6562",
"T#	c #DEBBB7",
"U#	c #9F9293",
"V#	c #F0E8EC",
"W#	c #89655E",
"X#	c #DED0D0",
"Y#	c #EBCDD3",
"Z#	c #D1ADB5",
"`#	c #4C4A47",
" $	c #C8CCD0",
".$	c #555559",
"+$	c #201B3C",
"@$	c #392F84",
"#$	c #362C84",
"$$	c #271C77",
"%$	c #231C60",
"&$	c #0B0B1F",
"*$	c #000207",
"=$	c #454854",
"-$	c #7D8087",
";$	c #60626E",
">$	c #5A5C66",
",$	c #EEEEEF",
"'$	c #FAFAFA",
")$	c #ABA9B2",
"!$	c #010005",
"~$	c #090309",
"{$	c #030004",
"]$	c #45262C",
"^$	c #C17773",
"/$	c #BB8A7E",
"($	c #F1E5DE",
"_$	c #F0ECEF",
":$	c #885E57",
"<$	c #D1BBB4",
"[$	c #EDE0E0",
"}$	c #E7C7CE",
"|$	c #A78F92",
"1$	c #8F858B",
"2$	c #6F6B70",
"3$	c #3D375F",
"4$	c #7269B7",
"5$	c #756DB4",
"6$	c #524A92",
"7$	c #564F91",
"8$	c #454461",
"9$	c #4A4D53",
"0$	c #3A3B49",
"a$	c #07060E",
"b$	c #C6C6C6",
"c$	c #FFFFFE",
"d$	c #FEFDFF",
"e$	c #C6C3CB",
"f$	c #09040A",
"g$	c #070208",
"h$	c #0F0F0E",
"i$	c #8F524E",
"j$	c #BD7D7A",
"k$	c #D1C9C0",
"l$	c #F2F6F5",
"m$	c #B88D86",
"n$	c #B07F74",
"o$	c #F5E6E8",
"p$	c #E3CDD1",
"q$	c #E5C9CA",
"r$	c #8D787D",
"s$	c #72686F",
"t$	c #171140",
"u$	c #3D3589",
"v$	c #7972BB",
"w$	c #524B94",
"x$	c #312975",
"y$	c #110E35",
"z$	c #01040B",
"A$	c #04020D",
"B$	c #040007",
"C$	c #05000B",
"D$	c #141019",
"E$	c #A0A09F",
"F$	c #E5E5E5",
"G$	c #C7C8C7",
"H$	c #BEBEBE",
"I$	c #ACABAE",
"J$	c #45434D",
"K$	c #0C080F",
"L$	c #151017",
"M$	c #040006",
"N$	c #0C0A0C",
"O$	c #593731",
"P$	c #B7958E",
"Q$	c #C9C8CC",
"R$	c #F4F9F4",
"S$	c #D2BCB6",
"T$	c #B97577",
"U$	c #E5CDCD",
"V$	c #F5E9EE",
"W$	c #D8BDBC",
"X$	c #8D7B79",
"Y$	c #1A1110",
"Z$	c #131039",
"`$	c #343386",
" %	c #6A68B6",
".%	c #766EBA",
"+%	c #635B9B",
"@%	c #252254",
"#%	c #0B0B24",
"$%	c #03050D",
"%%	c #01020A",
"&%	c #0B0826",
"*%	c #2F2A58",
"=%	c #B0AFC5",
"-%	c #555373",
";%	c #2A284D",
">%	c #1C1C33",
",%	c #0B0A14",
"'%	c #03000D",
")%	c #241E2B",
"!%	c #353643",
"~%	c #1C1D23",
"{%	c #1D1116",
"]%	c #473C3C",
"^%	c #ACA29C",
"/%	c #CCC5C3",
"(%	c #F6FDF9",
"_%	c #D3D8D0",
":%	c #D2A8A6",
"<%	c #DEB5AF",
"[%	c #E5F1E9",
"}%	c #DACDD3",
"|%	c #B9A8A0",
"1%	c #3D3427",
"2%	c #05010C",
"3%	c #1A1944",
"4%	c #423998",
"5%	c #958BE1",
"6%	c #746DAE",
"7%	c #564E98",
"8%	c #352F6A",
"9%	c #171441",
"0%	c #252155",
"a%	c #262063",
"b%	c #291F71",
"c%	c #2A2173",
"d%	c #261B76",
"e%	c #291F7F",
"f%	c #28216A",
"g%	c #151130",
"h%	c #0E0913",
"i%	c #6A6274",
"j%	c #686981",
"k%	c #4B4555",
"l%	c #483A3F",
"m%	c #6C6463",
"n%	c #A49591",
"o%	c #806D69",
"p%	c #E9F4F4",
"q%	c #DBDFDC",
"r%	c #E0DCD7",
"s%	c #CAA1A0",
"t%	c #F0E2D9",
"u%	c #E3E7E5",
"v%	c #D5C6C8",
"w%	c #B1A1A0",
"x%	c #625351",
"y%	c #0E060A",
"z%	c #1B1342",
"A%	c #4C458E",
"B%	c #8C85D3",
"C%	c #6B60BC",
"D%	c #40378C",
"E%	c #625AA3",
"F%	c #251B75",
"G%	c #281D7C",
"H%	c #271D72",
"I%	c #261D70",
"J%	c #2C2375",
"K%	c #2A2176",
"L%	c #29206F",
"M%	c #161132",
"N%	c #5E5B5D",
"O%	c #E9E6EB",
"P%	c #A3A2B1",
"Q%	c #9B8B94",
"R%	c #8A7877",
"S%	c #746C65",
"T%	c #E6CFC7",
"U%	c #73535C",
"V%	c #A1ADB2",
"W%	c #F2ECEB",
"X%	c #E0EAE6",
"Y%	c #F9EFF1",
"Z%	c #D6A9A9",
"`%	c #EBE5DD",
" &	c #FFF6F9",
".&	c #CEC5C9",
"+&	c #E3D3D4",
"@&	c #AC9895",
"#&	c #3C312C",
"$&	c #0F0C2A",
"%&	c #373377",
"&&	c #756EC6",
"*&	c #837AD2",
"=&	c #6962B3",
"-&	c #5048A6",
";&	c #574EAE",
">&	c #433A94",
",&	c #352884",
"'&	c #2F227C",
")&	c #2A1E73",
"!&	c #150F43",
"~&	c #55535F",
"{&	c #F8F7F6",
"]&	c #FFFFFC",
"^&	c #F2F1EF",
"/&	c #D3C8C6",
"(&	c #B8ACA6",
"_&	c #C0C1BB",
":&	c #CFB1A1",
"<&	c #6E4F5C",
"[&	c #A4B2C5",
"}&	c #C7CAC8",
"|&	c #EBEDEB",
"1&	c #F7FBF8",
"2&	c #F0EDE9",
"3&	c #D8BEBC",
"4&	c #E9D4D7",
"5&	c #F8F7F3",
"6&	c #BABAB6",
"7&	c #FFF0F4",
"8&	c #CFBBB9",
"9&	c #5B4746",
"0&	c #130313",
"a&	c #211747",
"b&	c #48438F",
"c&	c #5451A5",
"d&	c #5850A9",
"e&	c #544CAA",
"f&	c #3B3093",
"g&	c #2F207E",
"h&	c #2B1F6B",
"i&	c #20184E",
"j&	c #6F6C81",
"k&	c #EAE9EB",
"l&	c #FCFDFB",
"m&	c #FCFAF8",
"n&	c #FFFCF9",
"o&	c #ACA9A6",
"p&	c #D9D6D0",
"q&	c #F8FFFD",
"r&	c #E4C7B7",
"s&	c #69535C",
"t&	c #899CBF",
"u&	c #B2C2C5",
"v&	c #BCBBBD",
"w&	c #EDF2F4",
"x&	c #EEFEF9",
"y&	c #FDF4F2",
"z&	c #E2CED0",
"A&	c #F7F5F2",
"B&	c #AFAFAB",
"C&	c #FFFDFF",
"D&	c #FCF2FA",
"E&	c #F2E0DC",
"F&	c #B49F95",
"G&	c #392B2B",
"H&	c #100820",
"I&	c #181149",
"J&	c #251A64",
"K&	c #281D6C",
"L&	c #2F2275",
"M&	c #2E2269",
"N&	c #211B47",
"O&	c #757384",
"P&	c #F6F5F8",
"Q&	c #FDFCFF",
"R&	c #FFFDF9",
"S&	c #D1CDCA",
"T&	c #B0ADAA",
"U&	c #FEFEF3",
"V&	c #FAFCFB",
"W&	c #E6CDC6",
"X&	c #6B5B64",
"Y&	c #6B7CA9",
"Z&	c #96A7B9",
"`&	c #97A0A3",
" *	c #DFE9EA",
".*	c #FBFAFA",
"+*	c #FAFEFB",
"@*	c #FDFBF9",
"#*	c #FDFDF9",
"$*	c #CFC7C7",
"%*	c #DDDAD4",
"&*	c #FEFEFF",
"**	c #FDF9F7",
"=*	c #D8CDC3",
"-*	c #8A7769",
";*	c #473631",
">*	c #221A17",
",*	c #1C1214",
"'*	c #0F0810",
")*	c #0D091C",
"!*	c #221E29",
"~*	c #504C4B",
"{*	c #A4A198",
"]*	c #F6F4F5",
"^*	c #FBFEFC",
"/*	c #ECECE9",
"(*	c #AAA7A5",
"_*	c #F7F5F3",
":*	c #FBFCF4",
"<*	c #F9FCFB",
"[*	c #E5D3D3",
"}*	c #71666B",
"|*	c #4F5688",
"1*	c #7A81B4",
"2*	c #9EAABC",
"3*	c #99A2A8",
"4*	c #FEFFFC",
"5*	c #FFFDFE",
"6*	c #F9FAFA",
"7*	c #E8E8E9",
"8*	c #FBFDFF",
"9*	c #D9CFC6",
"0*	c #D5C5BA",
"a*	c #F5E5E2",
"b*	c #E0D1CD",
"c*	c #887773",
"d*	c #806A66",
"e*	c #866968",
"f*	c #A68787",
"g*	c #95807A",
"h*	c #D0C8C1",
"i*	c #F6F8F4",
"j*	c #CACBCB",
"k*	c #FDFDFB",
"l*	c #F8FBF6",
"m*	c #E6D5D8",
"n*	c #776F6B",
"o*	c #3F4772",
"p*	c #596194",
"q*	c #787FAB",
"r*	c #ABB1C4",
"s*	c #CACCCD",
"t*	c #FBFBFB",
"u*	c #ECECEC",
"v*	c #FBFEFE",
"w*	c #FAFFFD",
"x*	c #FFFFFD",
"y*	c #DEDFDB",
"z*	c #BFBFBC",
"A*	c #F1F2EE",
"B*	c #F0EFE7",
"C*	c #DFD8D3",
"D*	c #FEF5F1",
"E*	c #EADDDC",
"F*	c #CCC0BD",
"G*	c #B5ADA5",
"H*	c #DFDDDA",
"I*	c #FDFDFE",
"J*	c #FEFDFB",
"K*	c #FAFCF8",
"L*	c #EDDDDE",
"M*	c #757372",
"N*	c #818B9D",
"O*	c #555D81",
"P*	c #52568B",
"Q*	c #6D7092",
"R*	c #CFD1D6",
"S*	c #CDCCCC",
"T*	c #FBFCFB",
"U*	c #DCDCDC",
"V*	c #F3F3F3",
"W*	c #E7E5E7",
"X*	c #C1BEC1",
"Y*	c #FCFCFD",
"Z*	c #F9F9FC",
"`*	c #FBF9FD",
" =	c #FEF8FE",
".=	c #C1C1BA",
"+=	c #E0DED3",
"@=	c #FDFEFB",
"#=	c #FCFDF9",
"$=	c #F5E6E7",
"%=	c #697270",
"&=	c #E6E6E6",
"*=	c #7C7F93",
"==	c #5F6094",
"-=	c #6E6E9F",
";=	c #67687C",
">=	c #C1C1BF",
",=	c #D8D5D5",
"'=	c #F9F9F9",
")=	c #FCFFFE",
"!=	c #E4E6E6",
"~=	c #FDFEFD",
"{=	c #D9D9D9",
"]=	c #D0D0CF",
"^=	c #F9FAF9",
"/=	c #CECECE",
"(=	c #E1E1E1",
"_=	c #FEFFFB",
":=	c #F1EBEA",
"<=	c #888077",
"[=	c #F6F8F1",
"}=	c #C4CAC5",
"|=	c #8D96AA",
"1=	c #5D638F",
"2=	c #7B789B",
"3=	c #C2BBBD",
"4=	c #AEA9A9",
"5=	c #FAFEFD",
"6=	c #E5E6E6",
"7=	c #E4E4E4",
"8=	c #D0D0D0",
"9=	c #D1D1D1",
"0=	c #D5D5D5",
"a=	c #FFFEFA",
"b=	c #F7F2F0",
"c=	c #8F857E",
"d=	c #FAF9FA",
"e=	c #DCE2DA",
"f=	c #CBD6D1",
"g=	c #92A3A5",
"h=	c #696B86",
"i=	c #BBADBA",
"j=	c #D1C9CA",
"k=	c #AFB0AE",
"l=	c #DFE1E1",
"m=	c #DEDEDE",
"n=	c #D3D3D3",
"o=	c #B6B6B6",
"p=	c #FDFFFC",
"q=	c #FFFEFD",
"r=	c #B8AEAA",
"s=	c #FDFAFB",
"t=	c #E7E8DF",
"u=	c #DCDCD9",
"v=	c #C6CBC8",
"w=	c #8D9599",
"x=	c #968E98",
"y=	c #D1C0BD",
"z=	c #E6DBDA",
"A=	c #D6D0D4",
"B=	c #C1C0C2",
"C=	c #F7F7F7",
"D=	c #CDCDCD",
"E=	c #FEFFFE",
"F=	c #EAEAE9",
". + @ # $ % & * = - ; > , ' ) ! ~ { ] ^ / ( _ : : < ( [ < : } | ",
"1 2 3 4 5 6 7 8 9 0 a b c d e f g h i j k l < : m ( < < [ n o p ",
"q r s t u v w x y z A B C D E F G H I J K L M N O m : : P < Q R ",
"S T U V W X Y Z `  ...+.@.#.$.%.&.*.=.-.;.>.,.'.).!._ P ~.{.].^.",
"/.(._.:.<.[.}.|.1.2.3.4.5.6.7.8.9.0.a.b.c.d.e.f.g.h.: i.j.k.l.m.",
"n.o.p.q.r.s.t.u.v.w.x.y.z.A.B.C.D.E.F.G.H.I.J.K.L.M.N.O.P.Q.R.S.",
"T.U.V.W.X.Y.Z.`. +.+++@+#+< < $+%+&+*+=+-+;+>+,+'+)+!+~+{+++]+^+",
"/+(+_+:+<+[+}+|+1+2+3+4+5+6+7+8+9+0+a+b+c+d+e+f+g+h+i+j+k+l+m+n+",
"o+p+q+r+s+t+u+v+w+x+y+z+A+B+C+D+E+F+G+H+I+J+K+L+M+N+O+P+Q+R+S+T+",
"U+V+W+X+Y+Z+`+ @.@+@@@Z+#@$@%@&@*@=@-@;@>@,@'@)@!@~@{@]@^@/@(@_@",
":@<@[@}@|@1@2@3@4@5@6@$@7@8@9@0@a@b@c@d@e@s+f@g@h@i@j@k@l@m@n@o@",
"p@q@r@s@t@u@v@w@x@y@z@A@B@C@D@E@F@G@H@I@J@K@Z+L@M@N@O@P@Q@R@S@T@",
"U@V@W@X@Y@Z@`@ #.#+#@###$#%#&#*#=#-#;#>#,#'#)#!#~#{#]#^#/#(#_#:#",
"<#[#}#|#1#2#3#4#5#6#7#8#9#0#a#b#c#$@d#e#f#g#h#i#j#k#l#m#n#o#p#q#",
"r#s#t#u#v#w#x#y#z#A#B#C#D#E#F#G#H#I#J#K#< L#m M#N#O#P#Q#R#S#T#U#",
"V#W#X#Y#Z#`# $.$+$@$#$$$%$&$*$=$-$;$>$,$'$: P < )$!$~${$]$^$/$($",
"_$:$<$[$}$|$1$2$3$4$5$6$7$8$9$0$a$Z+Z+b$< c$c$d$e$Z+f$g$h$i$j$k$",
"l$m$n$o$p$q$r$s$t$u$v$w$x$y$z$A$B$C$D$E$F$G$H$I$J$K$L$M$N$O$P$Q$",
"R$S$T$U$V$W$X$Y$Z$`$ %.%+%@%#%$%%%&%*%=%-%;%>%,%'%)%!%~%{%]%^%/%",
"(%_%:%<%[%}%|%1%2%3%4%5%6%7%8%9%0%a%b%c%d%e%f%g%h%i%j%k%l%m%n%o%",
"p%q%r%s%t%u%v%w%x%y%z%A%B%C%D%E%F%G%H%I%J%K%L%M%N%O%P%Q%R%S%T%U%",
"V%W%X%Y%Z%`% &.&+&@&#&$&%&&&*&=&-&;&>&,&'&)&!&~&{&]&^&/&(&_&:&<&",
"[&}&|&1&2&3&4&5&6&7&8&9&0&a&b&c&d&e&f&g&h&i&j&k&l&m&n&o&p&q&r&s&",
"t&u&v&w&x&y&z&A&B&C&D&E&F&G&H&I&J&K&L&M&N&O&P&Q&P R&S&T&U&V&W&X&",
"Y&Z&`& *.*+*@*#*$*%*&*l&**=*-*;*>*,*'*)*!*~*{*]*^*/*(*_*:*<*[*}*",
"|*1*2*3*4*5*: '$6*7*c$: 8*< 9*0*a*b*c*d*e*f*g*h*i*j*7*: k*l*m*n*",
"o*p*q*r*s*< } : t*u*_ P v*w*x*y*z*c$A*B*C*D*E*F*G*H*< I*J*K*L*M*",
"N*O*P*Q*R*S*[ _ T*U*V*: P m d$C&W*X*Y*Z*`* =5*.=+=5&: : @=#=$=%=",
"&=*===-=;=>=,='=)=!=F$< : ~=~=: < {=]='='=^=/=(=_ _ : : _=y#:=<=",
"[=}=|=1=2=3=4=&=5=6=7=< < < < < _ : 8=9=V*0=F$M#M#: : < 4*a=b=c=",
"d=e=f=g=h=i=j=k=l=V*m=M#< : < < : < < n=o=V*< : : : : < p=a=q=r=",
"s=t=u=v=w=x=y=z=A=B=n=C=: < < : < : : M#m=D=< < : < < ( E=[ < F="};
